<?xml version="1.0" encoding="UTF-8" standalone="no"?>
<!-- Created with Inkscape (http://www.inkscape.org/) -->

<svg
   width="1920"
   height="545.61768"
   viewBox="0 0 508 144.36135"
   version="1.1"
   id="svg1"
   xml:space="preserve"
   inkscape:version="1.3.2 (091e20ef0f, 2023-11-25)"
   sodipodi:docname="lesson-002.svg"
   xmlns:inkscape="http://www.inkscape.org/namespaces/inkscape"
   xmlns:sodipodi="http://sodipodi.sourceforge.net/DTD/sodipodi-0.dtd"
   xmlns="http://www.w3.org/2000/svg"
   xmlns:svg="http://www.w3.org/2000/svg"><sodipodi:namedview
     id="namedview1"
     pagecolor="#505050"
     bordercolor="#ffffff"
     borderopacity="1"
     inkscape:showpageshadow="0"
     inkscape:pageopacity="0"
     inkscape:pagecheckerboard="1"
     inkscape:deskcolor="#d1d1d1"
     inkscape:document-units="mm"
     inkscape:zoom="2.8970538"
     inkscape:cx="315.14775"
     inkscape:cy="323.60462"
     inkscape:window-width="1920"
     inkscape:window-height="1011"
     inkscape:window-x="0"
     inkscape:window-y="32"
     inkscape:window-maximized="1"
     inkscape:current-layer="layer5"><inkscape:page
       x="0"
       y="0"
       width="508"
       height="144.36134"
       id="page1"
       margin="70.540543 0 70.848106"
       bleed="0" /></sodipodi:namedview><defs
     id="defs1" /><g
     inkscape:label="MAIN-LAYER"
     inkscape:groupmode="layer"
     id="layer1"
     transform="translate(-5.5817436,-70.694332)"><path
       style="fill:#ffffff;stroke-width:0.999999"
       d="m 24.530095,211.27722 c 0.0066,-0.40766 2.473868,-3.72592 5.484854,-7.37391 3.010986,-3.64801 7.80929,-9.56933 10.662909,-13.15852 l 5.188369,-6.52579 -0.0087,-39.02177 -0.0087,-39.02177 -5.263985,-7.161834 C 29.808027,84.351497 22.981818,72.837083 25.382819,73.37107 c 0.853117,0.189821 10.9971,15.43226 10.9971,16.524438 0,0.311625 0.209988,0.566573 0.466772,0.566573 0.256741,0 2.832504,3.335385 5.723926,7.411968 l 5.257132,7.411971 H 265.64891 483.47006 v 40.02466 40.02463 H 265.6539 47.838192 l -7.95297,9.92335 c -13.76849,17.17972 -15.394457,18.87598 -15.354581,16.01856 z m 55.005304,-34.9845 0.166959,-6.96726 H 63.970142 48.237959 v 7.12532 7.12536 l 15.565137,-0.158 15.565137,-0.158 z m 33.928011,0.14814 v -7.11549 H 97.453553 81.443687 v 7.11549 7.1155 h 16.009866 16.009857 z m 33.20564,0 v -7.11549 H 130.6592 114.64933 v 6.17757 c 0,8.94322 -1.80863,8.05342 16.36979,8.05342 h 15.64993 z m 33.20564,0.0157 v -7.13226 h -15.71338 -15.71339 v 7.07935 7.07934 l 15.71339,0.0529 15.71338,0.0529 z m 33.0762,-0.16494 0.16696,-6.96727 H 197.68212 182.2464 v 7.12551 7.12551 l 15.26866,-0.15822 15.26867,-0.15823 z m 34.52099,0.14813 v -7.11549 h -16.00986 -16.00986 v 7.11549 7.11549 h 16.00986 16.00986 z m 33.20562,0 v -7.11547 h -16.00986 -16.00986 v 6.72019 c 0,8.36082 -1.85662,7.51079 16.40517,7.51079 h 15.61455 z m 33.20564,0 v -7.11549 h -15.71339 -15.71338 v 7.11549 7.11549 h 15.71338 15.71339 z m 33.20564,0 v -7.11549 h -15.41691 -15.41691 v 7.11549 7.11549 h 15.41691 15.41691 z m 34.26212,-0.14813 0.16697,-6.96727 H 365.4892 349.46052 v 7.12517 7.12518 l 15.86161,-0.158 15.86163,-0.158 z m 33.20564,0 0.16697,-6.96727 h -16.02869 -16.02866 v 7.12517 7.12518 l 15.86161,-0.158 15.86161,-0.158 z m 33.33505,0.14813 v -7.11549 H 432.2152 416.53882 l -0.18534,6.53458 c -0.10193,3.59403 -0.0964,6.796 0.0134,7.11549 0.12237,0.35961 6.16536,0.58091 15.86161,0.58091 h 15.66397 z m 33.79859,0 v -7.11549 H 465.9768 450.26343 v 7.11549 7.11549 h 15.71337 15.71338 z M 146.66905,160.70684 v -6.7995 h -15.943 -15.94302 l -0.0936,6.77036 c -0.0825,5.95086 0.0285,6.79421 0.91661,6.96727 0.55571,0.10826 7.77225,0.12146 16.03676,0.0291 l 15.02637,-0.16786 z m 33.20564,6.2e-4 v -6.80012 h -15.71338 -15.71339 l -3.9e-4,6.96726 -4.1e-4,6.96725 15.71379,-0.16719 15.71378,-0.16719 z m -100.209873,0.0179 v -6.81902 H 63.951437 48.238068 v 6.81901 6.81902 h 15.713369 15.71338 z m 33.798593,0 v -6.81902 H 97.453553 81.443687 v 6.81901 6.81902 h 16.009866 16.009857 z m 99.66229,1.03768 c 0.0249,-3.17973 0.13469,-6.24828 0.244,-6.819 l 0.19857,-1.0377 h -15.6609 -15.66092 v 6.81902 6.81901 h 15.41691 15.41689 z m 34.34618,-1.03768 v -6.81902 h -16.00986 -16.00986 v 6.81902 6.81901 h 16.00986 16.00986 z m 33.20562,0 v -6.81902 h -16.00986 -16.00986 v 6.81901 6.81902 h 16.00986 16.00986 z m 33.20564,0 v -6.81902 h -15.71339 -15.71338 v 6.81902 6.81901 h 15.71338 15.71339 z m 33.20564,0 v -6.81902 h -15.41691 -15.41691 v 6.81902 6.81901 h 15.41691 15.41691 z m 34.39154,0 v -6.81902 H 365.47046 349.4606 v 6.81902 6.81901 h 16.00986 16.00986 z m 33.20565,0 v -6.81902 H 398.6761 382.66625 v 6.81902 6.81901 h 16.00985 16.00987 z m 33.20562,0 v -6.81902 h -15.9574 -15.95737 l 0.19856,1.0377 c 0.10914,0.57072 0.21918,3.63927 0.244,6.819 l 0.0453,5.78133 h 15.71336 15.71338 z m 33.79859,0 v -6.81902 H 465.9768 450.26343 v 6.81902 6.81901 h 15.71337 15.71338 z M 79.664817,145.3085 v -6.81901 H 63.951437 48.238068 v 6.81901 6.819 h 15.713369 15.71338 z m 33.798593,0 v -6.81901 H 97.453553 81.443687 v 6.81901 6.819 h 16.009866 16.009857 z m 33.20564,0 v -6.81901 H 130.6592 114.64933 v 6.81901 6.819 h 16.00987 16.00985 z m 33.20564,0 v -6.81901 h -15.71338 -15.71339 v 6.81901 6.819 h 15.71339 15.71338 z m 33.20562,0 v -6.81901 h -15.41688 -15.41691 v 6.81901 6.819 h 15.41691 15.41688 z m 34.39157,0 v -6.81901 h -16.00986 -16.00986 v 6.81901 6.819 h 16.00986 16.00986 z m 33.20562,0 v -6.81901 h -16.00986 -16.00986 v 6.81901 6.819 h 16.00986 16.00986 z m 33.20564,0 v -6.81901 h -15.71339 -15.71338 v 6.81901 6.819 h 15.71338 15.71339 z m 33.20564,0 v -6.81901 h -15.41691 -15.41691 v 6.81901 6.819 h 15.41691 15.41691 z m 34.39154,0 v -6.81901 H 365.47046 349.4606 v 6.81901 6.819 h 16.00986 16.00986 z m 33.20565,0 v -6.81901 H 398.6761 382.66625 v 6.81901 6.819 h 16.00985 16.00987 z m 33.20562,0 v -6.81901 l -15.86162,8.3e-4 -15.86163,8.3e-4 v 6.81865 6.81866 l 15.86163,-4.7e-4 15.86162,-4.9e-4 z m 33.79859,0 v -6.81901 H 465.9768 450.26343 v 6.81901 6.819 h 15.71337 15.71338 z M 79.664817,129.59512 v -6.52254 H 63.951437 48.238068 v 6.52254 6.52252 h 15.713369 15.71338 z m 33.798593,0 v -6.52254 H 97.453553 81.443687 v 6.52254 6.52252 h 16.009866 16.009857 z m 33.20564,0 v -6.52254 H 130.6592 114.64933 v 6.52254 6.52252 h 16.00987 16.00985 z m 33.20564,0 v -6.52254 h -15.71338 -15.71339 v 6.52254 6.52252 h 15.71339 15.71338 z m 33.5021,0.001 v -6.52213 l -15.56514,-8.8e-4 -15.56513,-8.9e-4 v 6.52254 6.52252 l 15.56513,4.9e-4 15.56514,4.9e-4 z m 34.09509,-0.001 v -6.52254 h -16.00986 -16.00986 v 6.52254 6.52252 h 16.00986 16.00986 z m 33.20562,0 v -6.52254 h -16.00986 -16.00986 v 6.52254 6.52252 h 16.00986 16.00986 z m 33.20564,0 v -6.52254 h -15.71339 -15.71338 v 6.52254 6.52252 h 15.71338 15.71339 z m 33.20564,0 v -6.52254 h -15.41691 -15.41691 v 6.52254 6.52252 h 15.41691 15.41691 z m 34.39154,0 v -6.52254 H 365.47046 349.4606 v 6.52254 6.52252 h 16.00986 16.00986 z m 33.20565,0 v -6.52254 H 398.6761 382.66625 v 6.52254 6.52252 h 16.00985 16.00987 z m 33.20562,0 v -6.52254 l -15.86162,-0.001 -15.86163,-10e-4 0.18534,6.52376 0.18534,6.52373 h 15.67638 15.67638 z m 33.79859,0 v -6.52254 H 465.9768 450.26343 v 6.52254 6.52252 h 15.71337 15.71338 z M 79.664817,113.88173 v -6.81901 H 63.951437 48.238068 v 6.81901 6.81902 h 15.713369 15.71338 z m 33.798593,0 v -6.81901 H 97.453553 81.443687 v 6.81901 6.81902 h 16.009866 16.009857 z m 33.20564,0 v -6.81901 H 130.6592 114.64933 v 6.81901 6.81902 h 16.00987 16.00985 z m 33.20564,0 v -6.81901 h -15.71338 -15.71339 v 6.81901 6.81902 h 15.71339 15.71338 z m 33.31797,10e-4 -0.18422,-6.82018 h -15.381 -15.38102 v 6.81902 6.81901 l 15.56514,0.001 15.56514,10e-4 z m 34.27922,-10e-4 v -6.81901 h -16.00986 -16.00986 c 2.80559,130.75023 0.43307,24.37753 0,6.81901 v 6.81902 h 16.00986 16.00986 z m 33.20562,0 v -6.81901 h -16.00986 -16.00986 v 6.81901 6.81902 h 16.00986 16.00986 z m 33.20564,0 v -6.81901 h -15.71339 -15.71338 v 6.81901 6.81902 h 15.71338 15.71339 z m 33.20564,0 v -6.81901 h -15.41691 -15.41691 v 6.81901 6.81902 h 15.41691 15.41691 z m 34.39154,0 v -6.81901 H 365.47046 349.4606 v 6.81901 6.81902 h 16.00986 16.00986 z m 33.20565,0 v -6.81901 H 398.6761 382.66625 v 6.81901 6.81902 h 16.00985 16.00987 z m 33.20562,0 v -6.81901 l -15.86162,-4.7e-4 -15.86163,-4.9e-4 v 6.81865 6.81868 l 15.86163,8.3e-4 15.86162,8.3e-4 z m 33.79859,0 v -6.81901 H 465.9768 450.26343 v 6.81901 6.81902 h 15.71337 15.71338 z"
       id="path4"
       inkscape:label="shape"
       sodipodi:nodetypes="csscccccssscccccccsccccccccccccccccccccccccsscccccccccccccccccccccccccccccccccssccccccccccccccccccccccccccccccccccccccccccscsccccccccccccccccscccccccccccccccccccccccccccccccccccccccccccccccccccccccccccccccccccccccccccccccccccccccccccccccccccccccccccccccccccccccccccccccccccccccccccccccccccccccccccccccccccccccccccccccccccccccccccccccccccccccccccccccccccccccccccccccccccccccccccccccccccccccccccccccccccccccccccccccccccccccccccccccccccccccccccccccccccccccccccccccccccccccccccccccccccccccccccccccccccccccccccccccccccccccccccccccccccccccccccccccccccccccccccccccccccccccccccccccccccccccccccccccccccccccccccccccc" /><g
       inkscape:groupmode="layer"
       id="layer3"
       inkscape:label="STRINGS"><g
         inkscape:groupmode="layer"
         id="layer2"
         inkscape:label="STRING-1"><circle
           style="opacity:1;fill:#00ff00;stroke:#000000;stroke-width:0.199999"
           id="path5"
           cx="489.63354"
           cy="183.89763"
           r="4.9000006"
           inkscape:label="circle-string-1" /><text
           xml:space="preserve"
           style="font-size:4.58611px;font-family:Sawasdee;-inkscape-font-specification:Sawasdee;letter-spacing:0px;word-spacing:-0.79375px;writing-mode:lr-tb;opacity:1;fill:#000000;stroke:none;stroke-width:0.2"
           x="488.13434"
           y="185.56927"
           id="text13"
           inkscape:label="text-string-1"><tspan
             sodipodi:role="line"
             id="tspan13"
             style="font-style:normal;font-variant:normal;font-weight:normal;font-stretch:normal;font-size:4.58611px;font-family:'Noto Sans Syriac';-inkscape-font-specification:'Noto Sans Syriac';writing-mode:lr-tb;fill:#000000;stroke:none;stroke-width:0.2"
             x="488.13434"
             y="185.56927">1</tspan></text></g><g
         inkscape:groupmode="layer"
         id="g9"
         inkscape:label="STRING-2"><circle
           style="opacity:1;fill:none;stroke:#ffffff;stroke-width:0.2"
           id="circle9"
           cx="489.63351"
           cy="168.52431"
           r="4.9000001"
           inkscape:label="circle-string-2" /><text
           xml:space="preserve"
           style="font-size:4.58611px;font-family:Sawasdee;-inkscape-font-specification:Sawasdee;letter-spacing:0px;word-spacing:-0.79375px;writing-mode:lr-tb;opacity:1;fill:#ffffff;stroke:none;stroke-width:0.2"
           x="488.23618"
           y="170.22618"
           id="text14"
           inkscape:label="text-string-2"><tspan
             sodipodi:role="line"
             id="tspan14"
             style="font-style:normal;font-variant:normal;font-weight:normal;font-stretch:normal;font-size:4.58611px;font-family:'Noto Sans Syriac';-inkscape-font-specification:'Noto Sans Syriac';writing-mode:lr-tb;fill:#ffffff;stroke:none;stroke-width:0.2"
             x="488.23618"
             y="170.22618">2</tspan></text></g><g
         inkscape:groupmode="layer"
         id="g10"
         inkscape:label="STRING-3"><circle
           style="opacity:1;fill:none;stroke:#ffffff;stroke-width:0.2"
           id="circle5"
           cx="489.63351"
           cy="153.151"
           r="4.9000001"
           inkscape:label="circle-string-3" /><text
           xml:space="preserve"
           style="font-size:4.58611px;font-family:Sawasdee;-inkscape-font-specification:Sawasdee;letter-spacing:0px;word-spacing:-0.79375px;writing-mode:lr-tb;opacity:1;fill:#ffffff;stroke:none;stroke-width:0.2"
           x="488.18356"
           y="154.8204"
           id="text15"
           inkscape:label="text-string-3"><tspan
             sodipodi:role="line"
             id="tspan15"
             style="font-style:normal;font-variant:normal;font-weight:normal;font-stretch:normal;font-size:4.58611px;font-family:'Noto Sans Syriac';-inkscape-font-specification:'Noto Sans Syriac';writing-mode:lr-tb;fill:#ffffff;stroke:none;stroke-width:0.2"
             x="488.18356"
             y="154.8204">3</tspan></text></g><g
         inkscape:groupmode="layer"
         id="g11"
         inkscape:label="STRING-4"><circle
           style="opacity:1;fill:none;stroke:#ffffff;stroke-width:0.2"
           id="circle6"
           cx="489.63351"
           cy="137.27304"
           r="4.9000001"
           inkscape:label="circle-string-4" /><text
           xml:space="preserve"
           style="font-size:4.58611px;font-family:Sawasdee;-inkscape-font-specification:Sawasdee;letter-spacing:0px;word-spacing:-0.79375px;writing-mode:lr-tb;opacity:1;fill:#ffffff;stroke:none;stroke-width:0.2"
           x="488.19141"
           y="138.94469"
           id="text16"
           inkscape:label="text-string-4"><tspan
             sodipodi:role="line"
             id="tspan16"
             style="font-style:normal;font-variant:normal;font-weight:normal;font-stretch:normal;font-size:4.58611px;font-family:'Noto Sans Syriac';-inkscape-font-specification:'Noto Sans Syriac';writing-mode:lr-tb;fill:#ffffff;stroke:none;stroke-width:0.2"
             x="488.19141"
             y="138.94469">4</tspan></text></g><g
         inkscape:groupmode="layer"
         id="g12"
         inkscape:label="STRING-5"><circle
           style="opacity:1;fill:none;stroke:#ffffff;stroke-width:0.2"
           id="circle7"
           cx="489.63351"
           cy="121.96573"
           r="4.9000001"
           inkscape:label="circle-string-5" /><text
           xml:space="preserve"
           style="font-size:4.58611px;font-family:Sawasdee;-inkscape-font-specification:Sawasdee;letter-spacing:0px;word-spacing:-0.79375px;writing-mode:lr-tb;opacity:1;fill:#ffffff;stroke:none;stroke-width:0.2"
           x="488.19812"
           y="123.6049"
           id="text17"
           inkscape:label="text-string-5"><tspan
             sodipodi:role="line"
             id="tspan17"
             style="font-style:normal;font-variant:normal;font-weight:normal;font-stretch:normal;font-size:4.58611px;font-family:'Noto Sans Syriac';-inkscape-font-specification:'Noto Sans Syriac';writing-mode:lr-tb;fill:#ffffff;stroke:none;stroke-width:0.2"
             x="488.19812"
             y="123.6049">5</tspan></text></g><g
         inkscape:groupmode="layer"
         id="g13"
         inkscape:label="STRING-6"><circle
           style="opacity:1;fill:none;stroke:#ffffff;stroke-width:0.2"
           id="circle8"
           cx="489.63351"
           cy="106.70079"
           r="4.9000001"
           inkscape:label="circle-string-6" /><text
           xml:space="preserve"
           style="font-size:4.58611px;font-family:Sawasdee;-inkscape-font-specification:Sawasdee;letter-spacing:0px;word-spacing:-0.79375px;writing-mode:lr-tb;opacity:1;fill:#ffffff;stroke:none;stroke-width:0.2"
           x="488.15894"
           y="108.37019"
           id="text18"
           inkscape:label="text-string-6"><tspan
             sodipodi:role="line"
             id="tspan18"
             style="font-style:normal;font-variant:normal;font-weight:normal;font-stretch:normal;font-size:4.58611px;font-family:'Noto Sans Syriac';-inkscape-font-specification:'Noto Sans Syriac';writing-mode:lr-tb;fill:#ffffff;stroke:none;stroke-width:0.2"
             x="488.15894"
             y="108.37019">6</tspan></text></g></g><g
       inkscape:groupmode="layer"
       id="layer4"
       inkscape:label="FINGERS"><g
         inkscape:groupmode="layer"
         id="g22"
         inkscape:label="FINGER-4"
         transform="translate(77.308718,-21.950347)"><rect
           style="opacity:0.5;fill:#ffff00;stroke:#000000;stroke-width:0.199999"
           id="rect22"
           width="14.799999"
           height="14.800001"
           x="79.433472"
           y="199.01924"
           inkscape:label="rect-finger-4" /><text
           xml:space="preserve"
           style="font-style:normal;font-variant:normal;font-weight:normal;font-stretch:normal;font-size:7.05556px;font-family:'Noto Sans Syriac';-inkscape-font-specification:'Noto Sans Syriac';letter-spacing:0px;word-spacing:-0.79375px;writing-mode:lr-tb;opacity:1;fill:#000000;stroke:#000000;stroke-width:0.2"
           x="84.61483"
           y="208.99101"
           id="text22"
           inkscape:label="text-finger-4"><tspan
             sodipodi:role="line"
             id="tspan22"
             style="font-size:7.05556px;fill:#000000;stroke-width:0.2"
             x="84.61483"
             y="208.99101">4</tspan></text></g><g
         inkscape:groupmode="layer"
         id="g21"
         inkscape:label="FINGER-3"
         transform="translate(44.039811,-21.950347)"><rect
           style="opacity:0.5;fill:#ffff00;stroke:#000000;stroke-width:0.199999"
           id="rect21"
           width="14.800001"
           height="14.800003"
           x="80.491814"
           y="199.01926"
           inkscape:label="rect-finger-3" /><text
           xml:space="preserve"
           style="font-style:normal;font-variant:normal;font-weight:normal;font-stretch:normal;font-size:7.05556px;font-family:'Noto Sans Syriac';-inkscape-font-specification:'Noto Sans Syriac';letter-spacing:0px;word-spacing:-0.79375px;writing-mode:lr-tb;opacity:1;fill:#000000;stroke:#000000;stroke-width:0.2"
           x="85.66111"
           y="208.98758"
           id="text21"
           inkscape:label="text-finger-3"><tspan
             sodipodi:role="line"
             id="tspan21"
             style="font-size:7.05556px;fill:#000000;stroke-width:0.2"
             x="85.66111"
             y="208.98758">3</tspan></text></g><g
         inkscape:groupmode="layer"
         id="layer5"
         inkscape:label="FINGER-2"
         transform="translate(9.9450793,-21.950346)"><rect
           style="opacity:1;fill:#00ff00;stroke:#000000;stroke-width:0.199999"
           id="rect19"
           width="14.800001"
           height="14.800003"
           x="79.433487"
           y="199.01927"
           inkscape:label="rect-finger-2" /><text
           xml:space="preserve"
           style="font-style:normal;font-variant:normal;font-weight:normal;font-stretch:normal;font-size:7.05556px;font-family:'Noto Sans Syriac';-inkscape-font-specification:'Noto Sans Syriac';letter-spacing:0px;word-spacing:-0.79375px;writing-mode:lr-tb;opacity:1;fill:#000000;stroke:#000000;stroke-width:0.2"
           x="84.683746"
           y="209.03755"
           id="text19"
           inkscape:label="text-finger-2"><tspan
             sodipodi:role="line"
             id="tspan19"
             style="font-size:7.05556px;fill:#000000;stroke-width:0.2"
             x="84.683746"
             y="209.03755">2</tspan></text></g><g
         inkscape:groupmode="layer"
         id="g20"
         inkscape:label="FINGER-1"
         transform="translate(-23.70538,-22.088567)"><rect
           style="opacity:0.5;fill:#ffff00;stroke:#000000;stroke-width:0.199999"
           id="rect20"
           width="14.799999"
           height="14.800001"
           x="79.962646"
           y="199.01926"
           inkscape:label="rect-finger-1" /><text
           xml:space="preserve"
           style="font-style:normal;font-variant:normal;font-weight:normal;font-stretch:normal;font-size:7.05556px;font-family:'Noto Sans Syriac';-inkscape-font-specification:'Noto Sans Syriac';letter-spacing:0px;word-spacing:-0.79375px;writing-mode:lr-tb;opacity:1;fill:#000000;stroke:#000000;stroke-width:0.2"
           x="85.056152"
           y="208.99103"
           id="text20"
           inkscape:label="text-finger-1"><tspan
             sodipodi:role="line"
             id="tspan20"
             style="font-size:7.05556px;fill:#000000;stroke-width:0.2"
             x="85.056152"
             y="208.99103">1</tspan></text></g><g
         inkscape:groupmode="layer"
         id="layer6"
         inkscape:label="NO-FINGER" /></g></g></svg>
